<?xml version="1.0" encoding="iso-8859-1"?>
<!-- Generator: Adobe Illustrator 19.0.0, SVG Export Plug-In . SVG Version: 6.00 Build 0)  -->
<svg version="1.1" id="Capa_1" xmlns="http://www.w3.org/2000/svg" xmlns:xlink="http://www.w3.org/1999/xlink" x="0px" y="0px"
	 viewBox="0 0 443.912 443.912" style="enable-background:new 0 0 443.912 443.912;" xml:space="preserve">
<g>
	<g>
		<path d="M387.584,26.308H56.832C25.6,26.308,0,51.908,0,83.14v222.208c0,31.232,25.6,56.832,56.832,56.832h90.112l52.224,46.592
			c12.8,11.776,32.768,11.776,45.568,0l52.224-46.592h90.112c31.232,0,56.832-25.6,56.832-56.832V83.14
			C444.416,51.396,418.816,26.308,387.584,26.308z M125.44,234.692c-20.48,0-36.864-16.384-36.864-36.864
			c0-20.48,16.384-36.864,36.864-36.864s36.864,16.384,36.864,36.864C162.304,218.308,145.92,234.692,125.44,234.692z
			 M228.352,234.692c-20.48,0-36.864-16.384-36.864-36.864c0-20.48,16.384-36.864,36.864-36.864
			c20.48,0,36.864,16.384,36.864,36.864C265.216,218.308,248.832,234.692,228.352,234.692z M331.264,234.692
			c-20.48,0-36.864-16.384-36.864-36.864c0-20.48,16.384-36.864,36.864-36.864c20.48,0,36.864,16.384,36.864,36.864
			C368.128,218.308,351.744,234.692,331.264,234.692z"/>
	</g>
</g>
<g>
</g>
<g>
</g>
<g>
</g>
<g>
</g>
<g>
</g>
<g>
</g>
<g>
</g>
<g>
</g>
<g>
</g>
<g>
</g>
<g>
</g>
<g>
</g>
<g>
</g>
<g>
</g>
<g>
</g>
</svg>
