<svg id="Capa_1" enable-background="new 0 0 511.999 511.999" height="512" viewBox="0 0 511.999 511.999" width="512" xmlns="http://www.w3.org/2000/svg"><g><g><path d="m348.132 337.175c-3.534-2.161-4.647-6.777-2.487-10.311l75.833-124.045c2.16-3.534 6.775-4.649 10.311-2.487 3.534 2.161 4.647 6.777 2.487 10.311l-75.833 124.045c-2.161 3.535-6.778 4.647-10.311 2.487z" fill="#dfebfa"/></g><g><path d="m314.411 334.962-83.404-124c-2.312-3.437-1.4-8.098 2.037-10.409 3.438-2.312 8.098-1.399 10.409 2.037l83.404 124c2.312 3.437 1.4 8.098-2.037 10.409-3.442 2.314-8.099 1.398-10.409-2.037z" fill="#dfebfa"/></g><g><path d="m124.599 337.501c-3.534-2.161-4.648-6.777-2.487-10.311l76.007-124.33c2.16-3.534 6.776-4.649 10.311-2.487 3.534 2.161 4.647 6.777 2.487 10.311l-76.007 124.33c-2.161 3.536-6.779 4.647-10.311 2.487z" fill="#dfebfa"/></g><path d="m504.499 466.508h-459.008v-459.008c0-4.142-3.358-7.5-7.5-7.5s-7.5 3.358-7.5 7.5v106.332h-4.88c-4.142 0-7.5 3.358-7.5 7.5s3.358 7.5 7.5 7.5h4.88v102.559h-4.88c-4.142 0-7.5 3.358-7.5 7.5s3.358 7.5 7.5 7.5h4.88v102.559h-4.88c-4.142 0-7.5 3.358-7.5 7.5s3.358 7.5 7.5 7.5h4.88v102.559h-22.991c-4.142 0-7.5 3.358-7.5 7.5s3.358 7.5 7.5 7.5h22.991v22.991c0 4.142 3.358 7.5 7.5 7.5s7.5-3.358 7.5-7.5v-22.991h102.559v4.88c0 4.142 3.358 7.5 7.5 7.5s7.5-3.358 7.5-7.5v-4.88h102.559v4.88c0 4.142 3.358 7.5 7.5 7.5s7.5-3.358 7.5-7.5v-4.88h102.559v4.88c0 4.142 3.358 7.5 7.5 7.5s7.5-3.358 7.5-7.5v-4.88h106.332c4.142 0 7.5-3.358 7.5-7.5s-3.359-7.501-7.501-7.501z" fill="#6c7ed6"/><g><path d="m195.966 15h-58.904c-4.142 0-7.5-3.358-7.5-7.5s3.358-7.5 7.5-7.5h58.904c4.142 0 7.5 3.358 7.5 7.5s-3.358 7.5-7.5 7.5z" fill="#dfebfa"/></g><g><path d="m230.291 47.185h-127.553c-4.142 0-7.5-3.358-7.5-7.5s3.358-7.5 7.5-7.5h127.553c4.142 0 7.5 3.358 7.5 7.5s-3.358 7.5-7.5 7.5z" fill="#dfebfa"/></g><g><path d="m230.291 79.369h-127.553c-4.142 0-7.5-3.358-7.5-7.5s3.358-7.5 7.5-7.5h127.553c4.142 0 7.5 3.358 7.5 7.5s-3.358 7.5-7.5 7.5z" fill="#dfebfa"/></g><circle cx="220.092" cy="181.297" fill="#fee55a" r="28.289"/><circle cx="443.426" cy="181.297" fill="#23a8fe" r="28.289"/><circle cx="113.755" cy="355.24" fill="#ff656f" r="28.289"/><circle cx="337.088" cy="355.24" fill="#43cb8e" r="28.289"/><path d="m215.092 181.297c0-11.471 6.832-21.34 16.645-25.779-3.552-1.607-7.492-2.509-11.645-2.509-15.623 0-28.289 12.665-28.289 28.289 0 15.623 12.665 28.289 28.289 28.289 4.153 0 8.092-.902 11.645-2.509-9.814-4.441-16.645-14.31-16.645-25.781z" fill="#ffd301"/><path d="m438.426 181.297c0-11.471 6.832-21.34 16.644-25.779-3.552-1.607-7.492-2.509-11.644-2.509-15.623 0-28.289 12.665-28.289 28.289 0 15.623 12.665 28.289 28.289 28.289 4.153 0 8.092-.902 11.644-2.509-9.813-4.441-16.644-14.31-16.644-25.781z" fill="#0193fa"/><path d="m108.755 355.24c0-11.471 6.831-21.34 16.644-25.779-3.552-1.607-7.492-2.509-11.644-2.509-15.624 0-28.289 12.665-28.289 28.289s12.665 28.289 28.289 28.289c4.152 0 8.092-.902 11.644-2.509-9.813-4.441-16.644-14.31-16.644-25.781z" fill="#ff4756"/><path d="m332.088 355.24c0-11.471 6.832-21.34 16.645-25.779-3.552-1.607-7.492-2.509-11.645-2.509-15.623 0-28.289 12.665-28.289 28.289s12.665 28.289 28.289 28.289c4.153 0 8.092-.902 11.645-2.509-9.813-4.441-16.645-14.31-16.645-25.781z" fill="#00ba66"/></g></svg>